<?xml version="1.0" encoding="utf-8"?>
<!-- Generator: Adobe Illustrator 16.0.0, SVG Export Plug-In . SVG Version: 6.00 Build 0)  -->
<!DOCTYPE svg [
	<!ENTITY ns_flows "http://ns.adobe.com/Flows/1.0/">
	<!ENTITY ns_extend "http://ns.adobe.com/Extensibility/1.0/">
	<!ENTITY ns_ai "http://ns.adobe.com/AdobeIllustrator/10.0/">
	<!ENTITY ns_graphs "http://ns.adobe.com/Graphs/1.0/">
]>
<svg version="1.2" baseProfile="tiny" xmlns:x="&ns_extend;" xmlns:i="&ns_ai;" xmlns:graph="&ns_graphs;"
	 xmlns="http://www.w3.org/2000/svg" xmlns:xlink="http://www.w3.org/1999/xlink" xmlns:a="http://ns.adobe.com/AdobeSVGViewerExtensions/3.0/"
	 x="0px" y="0px" width="100px" height="100px" viewBox="0 0 100 100" xml:space="preserve">
<g id="bg" display="none">
	<rect x="-16" y="-136" display="inline" fill="#5D5D5D" width="510" height="501"/>
</g>
<g id="iconos">
	<path fill="#FFFFFF" d="M90.627,38.049L77.449,25.168C77.096,24.814,76.706,25,76.207,25H72V11.473C72,10.433,71.018,10,69.978,10
		H48V9.136C48,5.338,45.238,3,41.439,3h-2.225C35.416,3,32,5.338,32,9.136V10H10.677C9.638,10,9,10.433,9,11.473v72.666
		C9,85.179,9.638,87,10.677,87H38v7.869C38,95.91,39.078,97,40.117,97h49.355C90.513,97,91,95.91,91,94.869V39.381
		C91,38.881,90.979,38.402,90.627,38.049z M72.355,47c1.039,0,1.882,0.46,1.882,1.5c0,1.039-0.843,1.5-1.882,1.5H48.747
		c-1.04,0-1.882-0.461-1.882-1.5c0-1.04,0.842-1.5,1.882-1.5H72.355z M30,14h8.915c1.041,0,1.883-0.96,1.883-2s-0.843-2-1.883-2H36
		V9.136C36,7.414,37.492,7,39.215,7h2.225C43.162,7,45,7.414,45,9.136v2.337C45,12.512,45.406,14,46.445,14H51v4H30V14z M38,26.115
		V83H13V14h13v5.002C26,20.042,27.145,21,28.185,21h24.284C53.509,21,54,20.042,54,19.002V14h14v11H40.117
		C39.078,25,38,25.074,38,26.115z M80.843,79H48.747c-1.04,0-1.882-0.96-1.882-2s0.842-2,1.882-2h32.096c1.04,0,1.882,0.96,1.882,2
		S81.881,79,80.843,79z M80.843,69H48.747c-1.04,0-1.882-0.46-1.882-1.5s0.842-1.5,1.882-1.5h32.096c1.04,0,1.882,0.46,1.882,1.5
		S81.881,69,80.843,69z M80.843,60H48.747c-1.04,0-1.882-0.96-1.882-2s0.842-2,1.882-2h32.096c1.04,0,1.882,0.96,1.882,2
		S81.881,60,80.843,60z M80.843,50h-3.138c-1.041,0-1.883-0.461-1.883-1.5c0-1.04,0.842-1.5,1.883-1.5h3.138
		c1.04,0,1.883,0.46,1.883,1.5C82.726,49.539,81.883,50,80.843,50z M78,38v-7.34L84.928,38H78z"/>
</g>
</svg>
