<?xml version="1.0" encoding="utf-8"?>
<!-- Generator: Adobe Illustrator 16.0.0, SVG Export Plug-In . SVG Version: 6.00 Build 0)  -->
<!DOCTYPE svg [
	<!ENTITY ns_flows "http://ns.adobe.com/Flows/1.0/">
	<!ENTITY ns_extend "http://ns.adobe.com/Extensibility/1.0/">
	<!ENTITY ns_ai "http://ns.adobe.com/AdobeIllustrator/10.0/">
	<!ENTITY ns_graphs "http://ns.adobe.com/Graphs/1.0/">
]>
<svg version="1.2" baseProfile="tiny" xmlns:x="&ns_extend;" xmlns:i="&ns_ai;" xmlns:graph="&ns_graphs;"
	 xmlns="http://www.w3.org/2000/svg" xmlns:xlink="http://www.w3.org/1999/xlink" xmlns:a="http://ns.adobe.com/AdobeSVGViewerExtensions/3.0/"
	 x="0px" y="0px" width="100px" height="100px" viewBox="0 0 100 100" xml:space="preserve">
<g id="bg" display="none">
	<rect x="-136" y="-136" display="inline" fill="#5D5D5D" width="510" height="501"/>
</g>
<g id="iconos">
	<path fill="#FFFFFF" d="M14.26,69.061v23.827c0,1.603,1.938,3.177,3.912,3.177h63.656c1.975,0,3.912-1.574,3.912-3.177V69.061
		H14.26z M26.969,34.115h12.707v3.178H26.969V34.115z M26.969,46.823h12.707V50H26.969V46.823z M26.969,40.469h12.707v3.178H26.969
		V40.469z M26.969,27.762h12.707v3.178H26.969V27.762z M42.852,34.115h30.182v3.178H42.852V34.115z M42.852,46.823h30.182V50H42.852
		V46.823z M42.852,40.469h30.182v3.178H42.852V40.469z M26.969,53.177h12.707v3.177H26.969V53.177z M85.74,65.885V26.139
		c0-1.217-0.146-2.117-0.875-2.847L66.381,4.809c-0.555-0.555-1.322-0.873-2.109-0.873h-46.1c-1.883,0-3.912,1.455-3.912,4.647
		v57.302H85.74z M63.502,9.322c0-0.729,0.879-1.092,1.393-0.577L80.93,24.78c0.516,0.515,0.15,1.394-0.576,1.394H63.502V9.322z
		 M23.791,53.177V50v-3.177v-3.177v-3.178v-3.176v-3.178v-3.176v-6.354h19.061v6.354h33.357v6.354v3.176v3.178v3.177V50v3.177v6.354
		H42.852h-3.176H23.791V53.177z M42.852,53.177h30.182v3.177H42.852V53.177z M31.221,76.106c0.625-1.032,1.492-1.712,2.602-2.04
		c0.609-0.172,1.297-0.258,2.063-0.258c2.234,0,4.227,0.258,5.979,0.773v2.579c-0.234-0.031-0.449-0.054-0.645-0.07
		c-0.195-0.016-0.426-0.035-0.691-0.059s-0.559-0.046-0.879-0.07c-0.32-0.023-0.639-0.043-0.949-0.059
		c-0.736-0.047-1.391-0.07-1.971-0.07c-0.578,0-1.027,0.035-1.348,0.105s-0.629,0.211-0.926,0.422s-0.516,0.527-0.656,0.95
		c-0.313,0.906-0.469,2.352-0.469,4.336s0.23,3.419,0.691,4.302s1.34,1.324,2.637,1.324c1.469,0,2.955-0.047,4.455-0.14l0.75-0.048
		v2.556c-1.406,0.438-3.219,0.656-5.439,0.656c-0.172,0-0.352,0-0.539,0c-2.094-0.016-3.59-0.766-4.488-2.251
		c-0.898-1.483-1.348-3.692-1.348-6.622S30.438,77.388,31.221,76.106z M43.621,79.764v-1.478c0-1.641,0.445-2.805,1.336-3.493
		c0.813-0.609,1.914-0.922,3.305-0.938c0.189,0,0.584,0,1.186,0c0.6,0,1.484,0.063,2.648,0.188s2.098,0.289,2.801,0.492v2.579
		c-1.781-0.155-3.199-0.234-4.254-0.234s-1.623,0-1.701,0c-0.703,0-1.217,0.095-1.547,0.281c-0.328,0.188-0.492,0.649-0.492,1.384
		v0.844c0,0.656,0.133,1.094,0.398,1.313s0.742,0.328,1.43,0.328h2.721c1.781,0,2.977,0.711,3.586,2.133
		c0.313,0.719,0.469,1.523,0.469,2.414v1.148c0,2.096-0.695,3.463-2.086,4.104c-0.719,0.344-1.602,0.516-2.648,0.516
		c-2.83,0-5.041-0.234-6.635-0.703v-2.579c1.719,0.173,3.219,0.258,4.5,0.258s2.029-0.016,2.24-0.047
		c0.211-0.03,0.426-0.094,0.645-0.188c0.469-0.202,0.703-0.617,0.703-1.242v-0.915c0-0.812-0.258-1.313-0.773-1.5
		c-0.203-0.078-0.461-0.117-0.773-0.117h-2.625C45.098,84.311,43.621,82.795,43.621,79.764z M56.842,73.996h3.494l3.82,12.847
		l4.033-12.847h3.492l-5.65,17.16h-3.797L56.842,73.996z"/>
</g>
</svg>
