<?xml version="1.0" encoding="UTF-8" standalone="no"?>
<svg
   xmlns:dc="http://purl.org/dc/elements/1.1/"
   xmlns:cc="http://creativecommons.org/ns#"
   xmlns:rdf="http://www.w3.org/1999/02/22-rdf-syntax-ns#"
   xmlns:svg="http://www.w3.org/2000/svg"
   xmlns="http://www.w3.org/2000/svg"
   xmlns:sodipodi="http://sodipodi.sourceforge.net/DTD/sodipodi-0.dtd"
   xmlns:inkscape="http://www.inkscape.org/namespaces/inkscape"
   enable-background="new 0 0 512 512"
   height="20"
   id="Layer_1"
   version="1.1"
   viewBox="0 0 20 20"
   width="20"
   xml:space="preserve"
   inkscape:version="0.91 r13725"
   sodipodi:docname="facebook.svg"><metadata
     id="metadata14"><rdf:RDF><cc:Work
         rdf:about=""><dc:format>image/svg+xml</dc:format><dc:type
           rdf:resource="http://purl.org/dc/dcmitype/StillImage" /><dc:title></dc:title></cc:Work></rdf:RDF></metadata><defs
     id="defs12" /><sodipodi:namedview
     pagecolor="#ffffff"
     bordercolor="#666666"
     borderopacity="1"
     objecttolerance="10"
     gridtolerance="10"
     guidetolerance="10"
     inkscape:pageopacity="0"
     inkscape:pageshadow="2"
     inkscape:window-width="1861"
     inkscape:window-height="1056"
     id="namedview10"
     showgrid="false"
     fit-margin-top="0"
     fit-margin-left="0"
     fit-margin-right="0"
     fit-margin-bottom="0"
     inkscape:zoom="0.93303299"
     inkscape:cx="254.42771"
     inkscape:cy="-123.02829"
     inkscape:window-x="59"
     inkscape:window-y="24"
     inkscape:window-maximized="1"
     inkscape:current-layer="Layer_1" /><linearGradient
     gradientTransform="matrix(0.04535384,0,0,-0.04535374,-3.50005,14.219711)"
     gradientUnits="userSpaceOnUse"
     id="SVGID_1_"
     x1="97.441902"
     x2="513.18268"
     y1="293.25851"
     y2="-122.4817"><stop
       offset="0"
       style="stop-color:#3B5998"
       id="stop4" /><stop
       offset="1"
       style="stop-color:#336699"
       id="stop6" /></linearGradient><path
     d="M 14.194751,0 5.80529,0 C 2.59914,0 0,2.59909 0,5.80528 l 0,8.389441 c 0,3.20619 2.59914,5.80528 5.80529,5.80528 l 4.403451,0 0,-7.43621 -2.5190406,0 0,-3.1488104 2.5190406,0 0,-1.8893004 c 0,-2.5939602 1.46421,-4.4083402 3.77857,-4.4083402 1.10835,0 1.88926,0 2.51904,0 l 0,3.14882 -1.25952,0 c -1.25825,0 -1.88931,0.6297402 -1.88931,1.8893002 l 0,1.2595204 3.14883,0 -0.62978,3.1488104 -2.51905,0 0,7.43621 0.83719,0 c 3.2062,0 5.80529,-2.59909 5.80529,-5.80528 l 0,-8.389441 C 20.000051,2.59913 17.400951,0 14.194751,0 Z"
     id="path8"
     style="fill:url(#SVGID_1_)"
     inkscape:connector-curvature="0" /></svg>