<?xml version="1.0" encoding="utf-8"?>
<!-- Generator: Adobe Illustrator 16.0.0, SVG Export Plug-In . SVG Version: 6.00 Build 0)  -->
<!DOCTYPE svg [
	<!ENTITY ns_flows "http://ns.adobe.com/Flows/1.0/">
	<!ENTITY ns_extend "http://ns.adobe.com/Extensibility/1.0/">
	<!ENTITY ns_ai "http://ns.adobe.com/AdobeIllustrator/10.0/">
	<!ENTITY ns_graphs "http://ns.adobe.com/Graphs/1.0/">
]>
<svg version="1.2" baseProfile="tiny" xmlns:x="&ns_extend;" xmlns:i="&ns_ai;" xmlns:graph="&ns_graphs;"
	 xmlns="http://www.w3.org/2000/svg" xmlns:xlink="http://www.w3.org/1999/xlink" xmlns:a="http://ns.adobe.com/AdobeSVGViewerExtensions/3.0/"
	 x="0px" y="0px" width="100px" height="100px" viewBox="0 0 100 100" xml:space="preserve">
<g id="bg" display="none">
	<rect x="-256" y="-16" display="inline" fill="#5D5D5D" width="510" height="501"/>
</g>
<g id="iconos">
	<path fill="#FFFFFF" d="M29.578,76.797c3.518,0,6.377-2.86,6.377-6.376c0-1.391-0.447-2.676-1.205-3.725l10.863-13.18
		C46.363,53.828,47.185,54,48.045,54c1.619,0,3.098-0.609,4.225-1.607l8.059,4.914c-0.127,0.503-0.197,1.03-0.197,1.572
		c0,3.516,2.861,6.377,6.377,6.377s6.377-2.861,6.377-6.377c0-1.848-0.792-3.515-2.053-4.68L83.93,26.896
		c0.339,0.056,0.688,0.088,1.044,0.088c3.515,0,6.376-2.861,6.376-6.377c0-3.516-2.861-6.376-6.376-6.376
		c-3.516,0-6.378,2.86-6.378,6.376c0,1.813,0.762,3.451,1.98,4.613l-13.12,27.354c-0.311-0.047-0.626-0.071-0.948-0.071
		c-1.619,0-3.099,0.608-4.225,1.606l-8.06-4.914c0.128-0.504,0.197-1.029,0.197-1.572c0-3.516-2.86-6.377-6.376-6.377
		c-3.517,0-6.377,2.861-6.377,6.377c0,1.295,0.389,2.502,1.056,3.508L31.762,64.429c-0.682-0.248-1.417-0.385-2.184-0.385
		c-3.516,0-6.375,2.859-6.375,6.377C23.203,73.937,26.063,76.797,29.578,76.797z M84.974,17.979c1.449,0,2.627,1.179,2.627,2.628
		c0,1.449-1.178,2.629-2.627,2.629c-1.45,0-2.63-1.18-2.63-2.629C82.344,19.158,83.523,17.979,84.974,17.979z M66.508,56.25
		c1.45,0,2.629,1.179,2.629,2.628s-1.179,2.629-2.629,2.629c-1.449,0-2.628-1.18-2.628-2.629S65.059,56.25,66.508,56.25z
		 M48.045,44.994c1.448,0,2.628,1.18,2.628,2.629s-1.18,2.629-2.628,2.629c-1.45,0-2.629-1.18-2.629-2.629
		S46.595,44.994,48.045,44.994z M29.578,67.792c1.45,0,2.63,1.18,2.63,2.629c0,1.448-1.18,2.628-2.63,2.628
		c-1.449,0-2.628-1.18-2.628-2.628C26.95,68.972,28.129,67.792,29.578,67.792z M89.542,80.546H19.455V10.458
		c0-1.035-0.84-1.875-1.875-1.875s-1.873,0.839-1.873,1.875v70.088h-5.249c-1.036,0-1.874,0.838-1.874,1.873
		s0.838,1.874,1.874,1.874h5.249v5.249c0,1.035,0.838,1.874,1.873,1.874s1.875-0.839,1.875-1.874v-5.249h70.087
		c1.034,0,1.874-0.839,1.874-1.874S90.576,80.546,89.542,80.546z"/>
</g>
</svg>
