<?xml version="1.0" encoding="utf-8"?>
<!-- Generator: Adobe Illustrator 16.0.0, SVG Export Plug-In . SVG Version: 6.00 Build 0)  -->
<!DOCTYPE svg [
	<!ENTITY ns_flows "http://ns.adobe.com/Flows/1.0/">
	<!ENTITY ns_extend "http://ns.adobe.com/Extensibility/1.0/">
	<!ENTITY ns_ai "http://ns.adobe.com/AdobeIllustrator/10.0/">
	<!ENTITY ns_graphs "http://ns.adobe.com/Graphs/1.0/">
]>
<svg version="1.2" baseProfile="tiny" xmlns:x="&ns_extend;" xmlns:i="&ns_ai;" xmlns:graph="&ns_graphs;"
	 xmlns="http://www.w3.org/2000/svg" xmlns:xlink="http://www.w3.org/1999/xlink" xmlns:a="http://ns.adobe.com/AdobeSVGViewerExtensions/3.0/"
	 x="0px" y="0px" width="100px" height="100px" viewBox="0 0 100 100" xml:space="preserve">
<g id="bg" display="none">
	<rect x="-16" y="-16" display="inline" fill="#5D5D5D" width="510" height="501"/>
</g>
<g id="iconos">
	<path fill="#FFFFFF" d="M22.556,31.704c3.367,0,6.242-1.19,8.624-3.573c2.382-2.382,3.574-5.257,3.574-8.625
		c0-3.367-1.192-6.242-3.574-8.624c-2.382-2.383-5.257-3.574-8.624-3.574c-3.368,0-6.242,1.191-8.624,3.574
		c-2.382,2.382-3.574,5.257-3.574,8.624s1.192,6.242,3.574,8.625S19.188,31.704,22.556,31.704z M37.063,50.741
		c3.574,3.572,7.886,5.359,12.938,5.359c5.051,0,9.363-1.787,12.936-5.359c3.573-3.575,5.36-7.888,5.36-12.938
		s-1.787-9.362-5.36-12.936c-3.573-3.574-7.885-5.361-12.936-5.361c-5.052,0-9.364,1.788-12.938,5.361s-5.359,7.885-5.359,12.936
		C31.704,42.854,33.49,47.167,37.063,50.741z M77.446,31.704c3.367,0,6.241-1.19,8.624-3.573c2.382-2.382,3.573-5.257,3.573-8.625
		c0-3.367-1.191-6.242-3.573-8.624c-2.382-2.383-5.257-3.574-8.624-3.574c-3.368,0-6.242,1.191-8.625,3.574
		c-2.381,2.382-3.573,5.257-3.573,8.624s1.192,6.242,3.573,8.625C71.204,30.513,74.078,31.704,77.446,31.704z M89.833,31.704
		c-0.189,0-0.881,0.334-2.072,1.001c-1.19,0.667-2.739,1.343-4.645,2.025c-1.905,0.682-3.796,1.024-5.67,1.024
		c-2.128,0-4.239-0.365-6.337-1.096c0.158,1.175,0.238,2.223,0.238,3.144c0,4.416-1.287,8.482-3.861,12.199
		c5.147,0.159,9.355,2.191,12.628,6.1h6.385c2.604,0,4.797-0.646,6.575-1.931c1.778-1.285,2.667-3.169,2.667-5.646
		C95.743,37.31,93.774,31.704,89.833,31.704z M82.713,70.227c-0.334-1.858-0.756-3.582-1.264-5.17
		c-0.508-1.589-1.191-3.137-2.049-4.646c-0.856-1.507-1.843-2.795-2.954-3.859c-1.112-1.065-2.471-1.913-4.074-2.55
		c-1.604-0.635-3.376-0.953-5.313-0.953c-0.318,0-1,0.342-2.049,1.025s-2.207,1.447-3.478,2.287
		c-1.271,0.841-2.969,1.604-5.099,2.287c-2.129,0.682-4.273,1.023-6.433,1.023s-4.304-0.342-6.433-1.023
		c-2.128-0.684-3.827-1.446-5.099-2.287c-1.271-0.84-2.43-1.604-3.478-2.287c-1.049-0.684-1.731-1.025-2.05-1.025
		c-1.937,0-3.708,0.318-5.313,0.953c-1.604,0.637-2.961,1.484-4.073,2.55c-1.113,1.063-2.096,2.353-2.955,3.859
		c-0.856,1.509-1.54,3.057-2.048,4.646c-0.508,1.588-0.928,3.312-1.263,5.17c-0.334,1.857-0.555,3.589-0.667,5.193
		c-0.111,1.605-0.167,3.25-0.167,4.934c0,3.811,1.16,6.82,3.479,9.027c2.32,2.207,5.401,3.311,9.244,3.311h41.645
		c3.843,0,6.924-1.104,9.244-3.311c2.318-2.207,3.478-5.217,3.478-9.027c0-1.684-0.056-3.328-0.166-4.934
		C83.267,73.816,83.045,72.084,82.713,70.227z M32.514,50.001c-2.573-3.717-3.859-7.783-3.858-12.199
		c0-0.921,0.08-1.969,0.238-3.144c-2.097,0.73-4.209,1.095-6.338,1.095c-1.875,0-3.764-0.341-5.67-1.024
		c-1.905-0.682-3.455-1.358-4.645-2.025c-1.192-0.667-1.883-1.001-2.074-1.001c-3.938,0-5.908,5.607-5.908,16.82
		c0,2.478,0.89,4.361,2.668,5.646c1.779,1.285,3.971,1.93,6.575,1.93h6.385C23.159,52.192,27.367,50.161,32.514,50.001z"/>
</g>
</svg>
