<?xml version="1.0" encoding="UTF-8" standalone="no"?>
<!-- Generator: Adobe Illustrator 16.0.0, SVG Export Plug-In . SVG Version: 6.00 Build 0)  -->

<svg
   xmlns:dc="http://purl.org/dc/elements/1.1/"
   xmlns:cc="http://creativecommons.org/ns#"
   xmlns:rdf="http://www.w3.org/1999/02/22-rdf-syntax-ns#"
   xmlns:svg="http://www.w3.org/2000/svg"
   xmlns="http://www.w3.org/2000/svg"
   xmlns:sodipodi="http://sodipodi.sourceforge.net/DTD/sodipodi-0.dtd"
   xmlns:inkscape="http://www.inkscape.org/namespaces/inkscape"
   version="1.2"
   x="0px"
   y="0px"
   width="25.813999"
   height="25.813999"
   viewBox="0 0 25.813999 25.813999"
   xml:space="preserve"
   id="svg3578"
   inkscape:version="0.91 r13725"
   sodipodi:docname="logout.svg"><metadata
     id="metadata3590"><rdf:RDF><cc:Work
         rdf:about=""><dc:format>image/svg+xml</dc:format><dc:type
           rdf:resource="http://purl.org/dc/dcmitype/StillImage" /><dc:title></dc:title></cc:Work></rdf:RDF></metadata><defs
     id="defs3588" /><sodipodi:namedview
     pagecolor="#ffffff"
     bordercolor="#666666"
     borderopacity="1"
     objecttolerance="10"
     gridtolerance="10"
     guidetolerance="10"
     inkscape:pageopacity="0"
     inkscape:pageshadow="2"
     inkscape:window-width="640"
     inkscape:window-height="480"
     id="namedview3586"
     showgrid="false"
     fit-margin-top="0"
     fit-margin-left="0"
     fit-margin-right="0"
     fit-margin-bottom="0"
     inkscape:zoom="2.36"
     inkscape:cx="12.907"
     inkscape:cy="12.907"
     inkscape:window-x="1072"
     inkscape:window-y="173"
     inkscape:window-maximized="0"
     inkscape:current-layer="svg3578" /><g
     id="bg"
     display="none"
     style="display:none"
     transform="translate(-37.093,-37.093)"><rect
       x="-376"
       y="-16"
       display="inline"
       width="510"
       height="501"
       id="rect3581"
       style="display:inline;fill:#5d5d5d" /></g><g
     id="iconos"
     transform="translate(-37.093,-37.093)"><path
       d="m 47.261,55.147 2.021,2.022 7.172,-7.171 -7.172,-7.171 -2.021,2.022 3.699,3.715 -13.867,0 0,2.867 13.867,0 -3.699,3.716 z m 12.777,-18.054 -20.078,0 c -1.59,0 -2.867,1.289 -2.867,2.867 l 0,5.736 2.867,0 0,-5.736 20.078,0 0,20.078 -20.078,0 0,-5.736 -2.867,0 0,5.736 c 0,1.577 1.277,2.869 2.867,2.869 l 20.078,0 c 1.578,0 2.869,-1.292 2.869,-2.869 l 0,-20.078 c 0,-1.578 -1.291,-2.867 -2.869,-2.867 z"
       id="path3584"
       inkscape:connector-curvature="0"
       style="fill:#ffffff" /></g></svg>