<?xml version="1.0" encoding="utf-8"?>
<!-- Generator: Adobe Illustrator 16.0.0, SVG Export Plug-In . SVG Version: 6.00 Build 0)  -->
<!DOCTYPE svg [
	<!ENTITY ns_flows "http://ns.adobe.com/Flows/1.0/">
	<!ENTITY ns_extend "http://ns.adobe.com/Extensibility/1.0/">
	<!ENTITY ns_ai "http://ns.adobe.com/AdobeIllustrator/10.0/">
	<!ENTITY ns_graphs "http://ns.adobe.com/Graphs/1.0/">
]>
<svg version="1.2" baseProfile="tiny" xmlns:x="&ns_extend;" xmlns:i="&ns_ai;" xmlns:graph="&ns_graphs;"
	 xmlns="http://www.w3.org/2000/svg" xmlns:xlink="http://www.w3.org/1999/xlink" xmlns:a="http://ns.adobe.com/AdobeSVGViewerExtensions/3.0/"
	 x="0px" y="0px" width="100px" height="100px" viewBox="0 0 100 100" xml:space="preserve">
<g id="bg" display="none">
	<rect x="-136" y="-16" display="inline" fill="#5D5D5D" width="510" height="501"/>
</g>
<g id="iconos">
	<g>
		<path fill="#FFFFFF" d="M87.375,39.321L50,7.286L12.625,39.321L50,71.357L87.375,39.321z M63.42,29.343
			c2.74,0.602,4.76,2.859,4.76,5.48c0,2.681-2.02,4.902-4.76,5.511V29.343z M49.421,26.915l12.528-4.352v24.581l-12.528-4.352
			V26.915z M31.82,34.914c0-4.122,3.342-7.501,7.471-7.501h8.66v14.971h-8.66C35.169,42.384,31.82,39.042,31.82,34.914z
			 M41.801,57.823l-2.25-13.969h7.902l0.549,3.29h2.28v5.198h-1.44l0.579,3.58c0.06,0.371,0.4,0.66,0.78,0.66
			c0.608,0,1.099,0.49,1.062,1.121c0,0.609-0.491,1.1-1.099,1.1h-7.211C42.381,58.803,41.891,58.403,41.801,57.823z"/>
		<polygon fill="#FFFFFF" points="12.625,44.009 12.625,88.368 38.43,66.44 		"/>
		<path fill="#FFFFFF" d="M50,76.696l-9.248-8.094l-26.435,22.66c0.956,0.896,2.253,1.452,3.684,1.452h63.997
			c1.426,0,2.718-0.556,3.674-1.447l-26.424-22.66L50,76.696z"/>
		<polygon fill="#FFFFFF" points="87.375,88.368 87.375,43.993 61.57,66.44 		"/>
	</g>
</g>
</svg>
