<?xml version="1.0" encoding="utf-8"?>
<!-- Generator: Adobe Illustrator 16.0.0, SVG Export Plug-In . SVG Version: 6.00 Build 0)  -->
<!DOCTYPE svg [
	<!ENTITY ns_flows "http://ns.adobe.com/Flows/1.0/">
	<!ENTITY ns_extend "http://ns.adobe.com/Extensibility/1.0/">
	<!ENTITY ns_ai "http://ns.adobe.com/AdobeIllustrator/10.0/">
	<!ENTITY ns_graphs "http://ns.adobe.com/Graphs/1.0/">
]>
<svg version="1.2" baseProfile="tiny" xmlns:x="&ns_extend;" xmlns:i="&ns_ai;" xmlns:graph="&ns_graphs;"
	 xmlns="http://www.w3.org/2000/svg" xmlns:xlink="http://www.w3.org/1999/xlink" xmlns:a="http://ns.adobe.com/AdobeSVGViewerExtensions/3.0/"
	 x="0px" y="0px" width="100px" height="100px" viewBox="0 0 100 100" xml:space="preserve">
<g id="bg" display="none">
	<rect x="-256" y="-256" display="inline" fill="#5D5D5D" width="510" height="501"/>
</g>
<g id="iconos">
	<path fill="#FFFFFF" d="M63.332,50c9.82,0,17.775-7.955,17.775-17.775c0-9.821-7.955-17.776-17.775-17.776
		s-17.775,7.955-17.775,17.776C45.557,42.045,53.512,50,63.332,50z M23.336,41.112V27.78h-8.887v13.332H1.117V50h13.332v13.332
		h8.887V50h13.332v-8.888H23.336z M63.332,58.888c-11.865,0-35.551,5.954-35.551,17.776v8.888h71.102v-8.888
		C98.883,64.842,75.197,58.888,63.332,58.888z"/>
</g>
</svg>
